<svg width="960" height="540" viewBox="0 0 960 540" fill="none" xmlns="http://www.w3.org/2000/svg" role="img" aria-labelledby="title desc">
  <title id="title">MyGoldFolio 404 Illustration</title>
  <desc id="desc">Dark dashboard motif with golden chart bars and a route marker.</desc>
  <defs>
    <linearGradient id="bg" x1="100" y1="30" x2="860" y2="500" gradientUnits="userSpaceOnUse">
      <stop stop-color="#1A1A2E"/>
      <stop offset="1" stop-color="#0F0F1A"/>
    </linearGradient>
    <linearGradient id="gold" x1="300" y1="130" x2="720" y2="430" gradientUnits="userSpaceOnUse">
      <stop stop-color="#F2C45B"/>
      <stop offset="1" stop-color="#D4A843"/>
    </linearGradient>
  </defs>

  <rect x="20" y="20" width="920" height="500" rx="28" fill="url(#bg)"/>

  <rect x="120" y="108" width="720" height="324" rx="24" fill="#121629" stroke="#1E3A5C"/>
  <rect x="164" y="150" width="632" height="30" rx="8" fill="#1C2238"/>
  <circle cx="192" cy="166" r="6" fill="#D4A843"/>
  <circle cx="214" cy="166" r="6" fill="#1E3A5C"/>
  <circle cx="236" cy="166" r="6" fill="#1E3A5C"/>

  <g opacity="0.95">
    <rect x="200" y="244" width="44" height="116" rx="10" fill="#263150"/>
    <rect x="268" y="212" width="44" height="148" rx="10" fill="#394267"/>
    <rect x="336" y="274" width="44" height="86" rx="10" fill="#2D3A5E"/>
    <rect x="404" y="186" width="44" height="174" rx="10" fill="url(#gold)"/>
    <rect x="472" y="228" width="44" height="132" rx="10" fill="#3A4B76"/>
    <rect x="540" y="256" width="44" height="104" rx="10" fill="#33466F"/>
    <rect x="608" y="198" width="44" height="162" rx="10" fill="#D4A843"/>
    <rect x="676" y="240" width="44" height="120" rx="10" fill="#2B3E66"/>
  </g>

  <path d="M196 382C312 286 382 322 456 270C520 226 596 236 722 176" stroke="#D4A843" stroke-width="6" stroke-linecap="round" stroke-dasharray="12 10"/>
  <circle cx="456" cy="270" r="16" fill="#0F0F1A" stroke="#D4A843" stroke-width="4"/>

  <text x="480" y="474" text-anchor="middle" fill="#A9B0C7" font-family="Inter, Arial, sans-serif" font-size="24" font-weight="700" letter-spacing="0.8">This page is off-portfolio.</text>
</svg>
