<svg xmlns="http://www.w3.org/2000/svg" width="1200" height="360" viewBox="0 0 1200 360" fill="none">
  <defs>
    <linearGradient id="bg" x1="0" y1="0" x2="1200" y2="360" gradientUnits="userSpaceOnUse">
      <stop stop-color="#0D1120"/>
      <stop offset="1" stop-color="#161E33"/>
    </linearGradient>
    <radialGradient id="mintGlow" cx="0" cy="0" r="1" gradientUnits="userSpaceOnUse" gradientTransform="translate(220 270) rotate(-8) scale(260 170)">
      <stop stop-color="#22D3A6" stop-opacity="0.36"/>
      <stop offset="1" stop-color="#22D3A6" stop-opacity="0"/>
    </radialGradient>
    <linearGradient id="mintStroke" x1="60" y1="300" x2="1140" y2="120" gradientUnits="userSpaceOnUse">
      <stop stop-color="#22D3A6" stop-opacity="0"/>
      <stop offset="0.35" stop-color="#22D3A6" stop-opacity="0.55"/>
      <stop offset="0.7" stop-color="#7EF1D0" stop-opacity="0.62"/>
      <stop offset="1" stop-color="#22D3A6" stop-opacity="0"/>
    </linearGradient>
  </defs>

  <rect width="1200" height="360" fill="url(#bg)"/>
  <rect width="1200" height="360" fill="url(#mintGlow)"/>

  <path d="M42 278C202 246 336 228 462 216C628 198 740 170 860 142C970 116 1078 88 1160 54" stroke="url(#mintStroke)" stroke-width="3" stroke-linecap="round"/>
  <path d="M40 298C190 278 318 266 462 246C600 230 736 204 860 178C982 152 1066 124 1162 104" stroke="url(#mintStroke)" stroke-opacity="0.65" stroke-width="2" stroke-linecap="round"/>

  <g opacity="0.28" fill="#FFFFFF">
    <circle cx="124" cy="76" r="2"/>
    <circle cx="196" cy="118" r="1.5"/>
    <circle cx="274" cy="94" r="1.2"/>
    <circle cx="332" cy="136" r="1.5"/>
    <circle cx="426" cy="86" r="1.8"/>
    <circle cx="520" cy="124" r="1.1"/>
    <circle cx="604" cy="96" r="1.4"/>
    <circle cx="702" cy="138" r="1.5"/>
    <circle cx="818" cy="102" r="1.7"/>
    <circle cx="910" cy="120" r="1.3"/>
  </g>
</svg>
