<svg xmlns="http://www.w3.org/2000/svg" width="2400" height="1400" viewBox="0 0 2400 1400" fill="none">
  <defs>
    <linearGradient id="bg" x1="0" y1="0" x2="2400" y2="1400" gradientUnits="userSpaceOnUse">
      <stop offset="0" stop-color="#090B16"/>
      <stop offset="0.55" stop-color="#101327"/>
      <stop offset="1" stop-color="#161B33"/>
    </linearGradient>
    <radialGradient id="glowLeft" cx="0" cy="0" r="1" gradientUnits="userSpaceOnUse" gradientTransform="translate(420 1080) rotate(9) scale(680 460)">
      <stop stop-color="#22D3A6" stop-opacity="0.20"/>
      <stop offset="1" stop-color="#22D3A6" stop-opacity="0"/>
    </radialGradient>
    <radialGradient id="glowRight" cx="0" cy="0" r="1" gradientUnits="userSpaceOnUse" gradientTransform="translate(1880 260) rotate(12) scale(820 560)">
      <stop stop-color="#E2B84B" stop-opacity="0.30"/>
      <stop offset="1" stop-color="#E2B84B" stop-opacity="0"/>
    </radialGradient>
    <linearGradient id="lineGold" x1="220" y1="1060" x2="2120" y2="350" gradientUnits="userSpaceOnUse">
      <stop stop-color="#E2B84B" stop-opacity="0"/>
      <stop offset="0.35" stop-color="#E2B84B" stop-opacity="0.72"/>
      <stop offset="0.65" stop-color="#F6D77E" stop-opacity="0.78"/>
      <stop offset="1" stop-color="#E2B84B" stop-opacity="0"/>
    </linearGradient>
    <linearGradient id="lineMint" x1="220" y1="1120" x2="2160" y2="420" gradientUnits="userSpaceOnUse">
      <stop stop-color="#22D3A6" stop-opacity="0"/>
      <stop offset="0.45" stop-color="#22D3A6" stop-opacity="0.44"/>
      <stop offset="0.62" stop-color="#8EF7D9" stop-opacity="0.48"/>
      <stop offset="1" stop-color="#22D3A6" stop-opacity="0"/>
    </linearGradient>
    <filter id="soft" x="-200" y="-200" width="2800" height="1800" filterUnits="userSpaceOnUse" color-interpolation-filters="sRGB">
      <feGaussianBlur stdDeviation="22"/>
    </filter>
  </defs>

  <rect width="2400" height="1400" fill="url(#bg)"/>
  <rect width="2400" height="1400" fill="url(#glowLeft)"/>
  <rect width="2400" height="1400" fill="url(#glowRight)"/>

  <g opacity="0.35" filter="url(#soft)">
    <path d="M200 1150C760 860 1230 820 2210 360" stroke="url(#lineGold)" stroke-width="42" stroke-linecap="round"/>
    <path d="M140 1070C760 780 1280 760 2280 280" stroke="url(#lineMint)" stroke-width="34" stroke-linecap="round"/>
  </g>

  <path d="M220 1070C780 810 1260 770 2190 360" stroke="url(#lineGold)" stroke-opacity="0.78" stroke-width="4" stroke-linecap="round"/>
  <path d="M160 1120C760 840 1230 800 2210 410" stroke="url(#lineMint)" stroke-opacity="0.62" stroke-width="3" stroke-linecap="round"/>

  <g fill="#FFFFFF" fill-opacity="0.22">
    <circle cx="274" cy="258" r="2"/>
    <circle cx="512" cy="184" r="2"/>
    <circle cx="688" cy="332" r="1.5"/>
    <circle cx="890" cy="238" r="1.6"/>
    <circle cx="1086" cy="290" r="1.2"/>
    <circle cx="1244" cy="170" r="1.5"/>
    <circle cx="1422" cy="222" r="1.7"/>
    <circle cx="1628" cy="282" r="1.4"/>
    <circle cx="1812" cy="210" r="1.9"/>
    <circle cx="1990" cy="286" r="1.4"/>
    <circle cx="2132" cy="246" r="1.6"/>
  </g>
</svg>
