<svg xmlns="http://www.w3.org/2000/svg" width="1200" height="360" viewBox="0 0 1200 360" fill="none">
  <defs>
    <linearGradient id="bg" x1="0" y1="0" x2="1200" y2="360" gradientUnits="userSpaceOnUse">
      <stop stop-color="#0F1221"/>
      <stop offset="1" stop-color="#1D1A2F"/>
    </linearGradient>
    <radialGradient id="goldGlow" cx="0" cy="0" r="1" gradientUnits="userSpaceOnUse" gradientTransform="translate(900 84) rotate(168) scale(360 220)">
      <stop stop-color="#E2B84B" stop-opacity="0.42"/>
      <stop offset="1" stop-color="#E2B84B" stop-opacity="0"/>
    </radialGradient>
    <linearGradient id="goldStroke" x1="80" y1="292" x2="1132" y2="52" gradientUnits="userSpaceOnUse">
      <stop stop-color="#E2B84B" stop-opacity="0"/>
      <stop offset="0.28" stop-color="#E2B84B" stop-opacity="0.58"/>
      <stop offset="0.58" stop-color="#F9E19A" stop-opacity="0.82"/>
      <stop offset="1" stop-color="#E2B84B" stop-opacity="0"/>
    </linearGradient>
  </defs>

  <rect width="1200" height="360" fill="url(#bg)"/>
  <rect width="1200" height="360" fill="url(#goldGlow)"/>

  <path d="M38 290C188 250 336 240 472 218C600 196 722 166 836 136C946 108 1048 80 1160 44" stroke="url(#goldStroke)" stroke-width="3" stroke-linecap="round"/>
  <path d="M40 324C188 300 316 286 468 264C606 242 728 212 848 182C972 152 1066 124 1158 108" stroke="url(#goldStroke)" stroke-opacity="0.7" stroke-width="2.2" stroke-linecap="round"/>

  <g opacity="0.3" fill="#FFFFFF">
    <circle cx="114" cy="84" r="2"/>
    <circle cx="200" cy="120" r="1.5"/>
    <circle cx="284" cy="98" r="1.3"/>
    <circle cx="366" cy="136" r="1.7"/>
    <circle cx="460" cy="90" r="1.6"/>
    <circle cx="548" cy="126" r="1.3"/>
    <circle cx="640" cy="94" r="1.6"/>
    <circle cx="722" cy="132" r="1.4"/>
    <circle cx="826" cy="98" r="1.7"/>
    <circle cx="910" cy="122" r="1.5"/>
    <circle cx="1008" cy="92" r="1.8"/>
  </g>
</svg>
