<svg xmlns="http://www.w3.org/2000/svg" width="2200" height="140" viewBox="0 0 2200 140" fill="none">
  <defs>
    <linearGradient id="bg" x1="0" y1="0" x2="2200" y2="0" gradientUnits="userSpaceOnUse">
      <stop stop-color="#0A0C17" stop-opacity="0"/>
      <stop offset="0.5" stop-color="#0D1120" stop-opacity="0.55"/>
      <stop offset="1" stop-color="#0A0C17" stop-opacity="0"/>
    </linearGradient>
    <linearGradient id="gold" x1="0" y1="0" x2="2200" y2="0" gradientUnits="userSpaceOnUse">
      <stop stop-color="#E2B84B" stop-opacity="0"/>
      <stop offset="0.46" stop-color="#E2B84B" stop-opacity="0.52"/>
      <stop offset="0.56" stop-color="#F7DA8A" stop-opacity="0.72"/>
      <stop offset="1" stop-color="#E2B84B" stop-opacity="0"/>
    </linearGradient>
    <linearGradient id="mint" x1="0" y1="0" x2="2200" y2="0" gradientUnits="userSpaceOnUse">
      <stop stop-color="#22D3A6" stop-opacity="0"/>
      <stop offset="0.5" stop-color="#22D3A6" stop-opacity="0.36"/>
      <stop offset="1" stop-color="#22D3A6" stop-opacity="0"/>
    </linearGradient>
    <filter id="blur" x="-200" y="-90" width="2600" height="320" filterUnits="userSpaceOnUse" color-interpolation-filters="sRGB">
      <feGaussianBlur stdDeviation="12"/>
    </filter>
  </defs>

  <rect width="2200" height="140" fill="url(#bg)"/>
  <g filter="url(#blur)" opacity="0.45">
    <path d="M120 88C480 44 828 36 1100 72C1394 112 1722 106 2080 58" stroke="url(#gold)" stroke-width="14" stroke-linecap="round"/>
  </g>
  <path d="M110 84C486 44 830 34 1106 70C1390 108 1716 102 2090 54" stroke="url(#gold)" stroke-width="2" stroke-linecap="round"/>
  <path d="M180 96C538 56 866 52 1112 80C1384 112 1698 112 2024 78" stroke="url(#mint)" stroke-width="1.5" stroke-linecap="round" opacity="0.65"/>
</svg>
